FFmpeg version SVN-r25716, Copyright (c) 2000-2010 the FFmpeg developers  built on Nov 10 2010 12:23:18 with gcc 4.1.2 20080704 (Red Hat 4.1.2-48)  configuration: --enable-libmp3lame --enable-shared --disable-mmx --arch=x86_64  libavutil     50.33. 0 / 50.33. 0  libavcore      0.12. 1 /  0.12. 1  libavcodec    52.94. 4 / 52.94. 4  libavformat   52.84. 0 / 52.84. 0  libavdevice   52. 2. 2 / 52. 2. 2  libavfilter    1.59. 0 /  1.59. 0  libswscale     0.12. 0 /  0.12. 0Input #0, mov,mp4,m4a,3gp,3g2,mj2, from '/RAID10/data/converted_video_files/12087.mov':  Metadata:    major_brand     : qt      minor_version   : 537199360    compatible_brands: qt    Duration: 00:00:06.80, start: 0.000000, bitrate: 11531 kb/s    Stream #0.0(eng): Video: png, rgb24, 652x327, 11530 kb/s, 5 fps, 5 tbr, 5 tbn, 5 tbc[buffer @ 0x19658800] w:652 h:327 pixfmt:rgb24[ffsink @ 0x196c6f80] auto-inserting filter 'auto-inserted scaler 0' between the filter 'src' and the filter 'out'[scale @ 0x196c72a0] w:652 h:327 fmt:rgb24 -> w:652 h:327 fmt:yuv420p flags:0x4Output #0, flv, to '/RAID10/data/converted_video_files/12087.flv':  Metadata:    encoder         : Lavf52.84.0    Stream #0.0(eng): Video: flv, yuv420p, 652x327, q=2-31, 600 kb/s, 1k tbn, 24 tbcStream mapping:  Stream #0.0 -> #0.0Press [q] to stop encodingframe=   32 fps=  0 q=4.3 size=     270kB time=6.25 bitrate= 354.5kbits/s    frame=   34 fps=  0 q=4.4 Lsize=     281kB time=6.62 bitrate= 347.6kbits/s    video:280kB audio:0kB global headers:0kB muxing overhead 0.262619%